<svg width="217.644531" height="58.902893" viewBox="0 0 217.645 58.9029" fill="none" xmlns="http://www.w3.org/2000/svg" xmlns:xlink="http://www.w3.org/1999/xlink">
	<desc>
			Created with Pixso.
	</desc>
	<defs/>
	<path id="Vector" d="M17.95 56.3L11.99 45.98L20.74 30.87L26.3 40.5L59.1 40.48L49.79 56.44L17.95 56.3Z" fill="#FFAD64" fill-opacity="1.000000" fill-rule="nonzero"/>
	<path id="Vector" d="M64.96 30.23L59 40.55L41.55 40.53L47.1 30.9L30.69 2.5L49.16 2.58L64.96 30.23Z" fill="#ADD4D3" fill-opacity="1.000000" fill-rule="nonzero"/>
	<path id="Vector" d="M18.87 2.45L30.79 2.45L39.5 17.57L28.38 17.57L11.99 45.99L2.83 29.95L18.87 2.45Z" fill="#FB8351" fill-opacity="1.000000" fill-rule="nonzero"/>
	<path id="Vector" d="M32.24 0.06L32.21 0L17.46 0L0 29.94L11.99 50.92L12 50.89L16.53 58.74L51.2 58.9L63.37 38.02L63.29 38.02L67.79 30.24L50.59 0.14L32.24 0.06ZM43.65 20.03L43.74 20.03L35.07 4.97L47.74 5.03L62.13 30.22L57.63 38.03L45.82 38.03L49.93 30.9L43.65 20.03ZM29.24 4.9L35.15 15.12L26.97 15.12L12.96 39.41L12 41.07L5.66 29.96L20.28 4.9L29.24 4.9ZM23.56 30.85L29.8 20.02L37.98 20.03L44.27 30.9L40.15 38.04L27.71 38.04L23.56 30.85ZM14.83 45.99L17.2 41.87L20.73 35.77L24.88 42.95L37.32 42.94L37.3 42.98L54.79 43L48.39 53.98L19.37 53.85L14.83 45.99Z" fill="#333237" fill-opacity="1.000000" fill-rule="evenodd"/>
	<path id="Vector" d="M82.07 50.37L82.07 38.89L77.82 38.89L77.82 37.6L87.93 37.6L87.93 38.89L83.69 38.89L83.69 50.37L82.07 50.37Z" fill="#FFFFFF" fill-opacity="1.000000" fill-rule="nonzero"/>
	<path id="Vector" d="M92.45 50.57C90.77 50.57 89.52 50.16 88.68 49.36C87.85 48.55 87.44 47.31 87.44 45.63C87.44 44.12 87.79 42.94 88.51 42.08C89.23 41.21 90.38 40.77 91.94 40.77C92.86 40.77 93.62 40.95 94.22 41.29C94.82 41.62 95.27 42.08 95.56 42.68C95.87 43.26 96.02 43.92 96.02 44.66L96.02 46.42L89.06 46.42C89.11 47.14 89.27 47.7 89.52 48.11C89.78 48.52 90.17 48.82 90.69 49C91.22 49.17 91.91 49.26 92.77 49.26C93.73 49.26 94.62 49.09 95.42 48.76L95.42 50.03C95.01 50.2 94.55 50.34 94.04 50.43C93.53 50.52 93.01 50.57 92.45 50.57ZM89.06 45.25L94.57 45.25L94.57 44.48C94.57 43.72 94.37 43.13 93.96 42.72C93.56 42.29 92.9 42.08 91.97 42.08C90.85 42.08 90.09 42.35 89.68 42.88C89.27 43.4 89.06 44.2 89.06 45.25Z" fill="#FFFFFF" fill-opacity="1.000000" fill-rule="nonzero"/>
	<path id="Vector" d="M102.84 50.57C101.2 50.57 99.99 50.14 99.19 49.3C98.4 48.44 98 47.23 98 45.67C98 44.02 98.45 42.79 99.35 41.98C100.25 41.18 101.46 40.77 102.98 40.77C103.6 40.77 104.12 40.82 104.53 40.91C104.94 40.99 105.33 41.12 105.72 41.31L105.72 42.6C105 42.25 104.19 42.08 103.28 42.08C102.12 42.08 101.22 42.36 100.58 42.92C99.95 43.46 99.63 44.38 99.63 45.67C99.63 46.91 99.91 47.83 100.46 48.41C101.02 48.97 101.94 49.26 103.22 49.26C104.13 49.26 104.97 49.09 105.74 48.74L105.74 50.05C105.33 50.22 104.88 50.35 104.41 50.43C103.95 50.52 103.42 50.57 102.84 50.57Z" fill="#FFFFFF" fill-opacity="1.000000" fill-rule="nonzero"/>
	<path id="Vector" d="M107.56 50.37L107.56 37.01L109.18 37.01L109.18 41.98C109.62 41.63 110.13 41.34 110.71 41.11C111.31 40.89 111.99 40.77 112.77 40.77C113.91 40.77 114.76 41.05 115.33 41.61C115.9 42.16 116.18 43.03 116.18 44.22L116.18 50.37L114.56 50.37L114.56 44.28C114.56 43.46 114.37 42.9 114 42.58C113.64 42.25 113.05 42.08 112.22 42.08C111.69 42.08 111.14 42.2 110.57 42.44C110.02 42.66 109.55 42.96 109.18 43.33L109.18 50.37L107.56 50.37Z" fill="#FFFFFF" fill-opacity="1.000000" fill-rule="nonzero"/>
	<path id="Vector" d="M122.66 50.57C121.34 50.57 120.29 50.28 119.49 49.69C118.7 49.11 118.3 48.33 118.3 47.36C118.3 46.46 118.58 45.68 119.14 45.04C119.69 44.39 120.45 43.81 121.42 43.31C120.9 42.8 120.46 42.31 120.11 41.86C119.75 41.42 119.57 40.87 119.57 40.24C119.57 39.45 119.84 38.78 120.38 38.24C120.94 37.68 121.72 37.4 122.72 37.4C123.7 37.4 124.46 37.66 125 38.18C125.54 38.69 125.82 39.38 125.82 40.24C125.82 40.95 125.62 41.55 125.24 42.04C124.86 42.53 124.31 43.03 123.6 43.53L126.89 46.88C127.11 46.39 127.22 45.77 127.22 45.02L127.22 44.74L128.51 44.74L128.51 45.02C128.51 45.53 128.45 46.03 128.33 46.52C128.22 47.01 128.04 47.44 127.82 47.79L129.6 49.6L128.61 50.49L127.02 48.92C126.56 49.49 125.96 49.91 125.22 50.17C124.48 50.43 123.63 50.57 122.66 50.57ZM122.58 42.74C123.21 42.35 123.68 41.99 123.99 41.65C124.31 41.29 124.47 40.84 124.47 40.3C124.47 39.8 124.33 39.4 124.05 39.11C123.79 38.81 123.34 38.65 122.72 38.65C122.09 38.65 121.63 38.81 121.34 39.13C121.06 39.45 120.92 39.84 120.92 40.3C120.92 40.72 121.07 41.11 121.36 41.47C121.66 41.83 122.07 42.25 122.58 42.74ZM122.66 49.4C123.43 49.4 124.08 49.29 124.63 49.06C125.18 48.82 125.65 48.47 126.03 48.01L122.41 44.3C121.55 44.7 120.91 45.13 120.48 45.59C120.07 46.04 119.87 46.62 119.87 47.32C119.87 48 120.13 48.53 120.66 48.88C121.19 49.23 121.86 49.4 122.66 49.4Z" fill="#FB8351" fill-opacity="1.000000" fill-rule="nonzero"/>
	<path id="Vector" d="M78.46 28.34L78.46 10.66L83.62 10.66L83.62 24.38L91.58 24.38L91.58 28.34L78.46 28.34Z" fill="#FB8351" fill-opacity="1.000000" fill-rule="nonzero"/>
	<path id="Vector" d="M99.89 28.61C97.29 28.61 95.37 28.03 94.12 26.88C92.9 25.73 92.28 24.05 92.28 21.83C92.28 19.64 92.9 17.96 94.15 16.81C95.39 15.64 97.31 15.05 99.89 15.05C102.48 15.05 104.41 15.64 105.65 16.81C106.91 17.96 107.54 19.64 107.54 21.83C107.54 24.05 106.92 25.73 105.68 26.88C104.43 28.03 102.5 28.61 99.89 28.61ZM99.89 24.85C100.73 24.85 101.33 24.61 101.7 24.14C102.08 23.66 102.27 22.89 102.27 21.83C102.27 20.79 102.08 20.03 101.7 19.55C101.33 19.06 100.73 18.81 99.89 18.81C99.06 18.81 98.47 19.06 98.1 19.55C97.74 20.03 97.55 20.79 97.55 21.83C97.55 22.89 97.74 23.66 98.1 24.14C98.47 24.61 99.06 24.85 99.89 24.85Z" fill="#FB8351" fill-opacity="1.000000" fill-rule="nonzero"/>
	<path id="Vector" d="M115.19 33.17C114.55 33.17 113.85 33.14 113.1 33.08C112.35 33.05 111.64 32.97 110.96 32.87C110.3 32.76 109.75 32.63 109.31 32.48L109.31 29.19C109.81 29.35 110.37 29.49 111.01 29.6C111.67 29.71 112.34 29.79 113.02 29.85C113.69 29.9 114.32 29.93 114.88 29.93C115.85 29.93 116.61 29.87 117.16 29.76C117.73 29.67 118.01 29.5 118.01 29.24C118.01 29.02 117.92 28.88 117.74 28.8C117.56 28.75 117.21 28.72 116.7 28.72L113.26 28.72C111.93 28.72 110.9 28.51 110.16 28.09C109.45 27.65 109.09 27 109.09 26.14C109.09 24.93 109.76 24.09 111.1 23.62C110.35 23.23 109.8 22.75 109.45 22.16C109.1 21.58 108.93 20.83 108.93 19.94C108.93 18.25 109.5 17.02 110.63 16.23C111.78 15.45 113.44 15.05 115.6 15.05C116.06 15.05 116.57 15.09 117.13 15.16C117.7 15.22 118.11 15.27 118.37 15.33L123.48 15.33L123.37 18.46L121.64 18.46C121.97 18.88 122.13 19.39 122.13 19.99C122.13 21.33 121.74 22.39 120.95 23.18C120.18 23.94 118.96 24.33 117.3 24.33C117.06 24.33 116.81 24.32 116.53 24.3C116.26 24.26 116 24.24 115.76 24.22C115.36 24.26 115.01 24.33 114.72 24.44C114.43 24.55 114.28 24.73 114.28 24.99C114.28 25.17 114.36 25.3 114.53 25.37C114.69 25.43 114.92 25.45 115.21 25.45L118.21 25.45C119.54 25.45 120.59 25.77 121.36 26.39C122.13 27.01 122.51 27.92 122.51 29.13C122.51 30.41 121.92 31.4 120.73 32.1C119.54 32.81 117.69 33.17 115.19 33.17ZM115.63 21.5C116.43 21.5 116.99 21.36 117.3 21.09C117.61 20.82 117.77 20.36 117.77 19.72C117.77 19.08 117.61 18.61 117.3 18.32C116.99 18.03 116.43 17.88 115.63 17.88C114.88 17.88 114.33 18.03 113.98 18.32C113.65 18.59 113.48 19.06 113.48 19.72C113.48 20.34 113.64 20.8 113.95 21.09C114.28 21.36 114.84 21.5 115.63 21.5Z" fill="#FB8351" fill-opacity="1.000000" fill-rule="nonzero"/>
	<path id="Vector" d="M131.89 28.61C129.29 28.61 127.37 28.03 126.13 26.88C124.9 25.73 124.29 24.05 124.29 21.83C124.29 19.64 124.91 17.96 126.15 16.81C127.4 15.64 129.31 15.05 131.89 15.05C134.49 15.05 136.41 15.64 137.65 16.81C138.92 17.96 139.55 19.64 139.55 21.83C139.55 24.05 138.92 25.73 137.68 26.88C136.44 28.03 134.51 28.61 131.89 28.61ZM131.89 24.85C132.73 24.85 133.34 24.61 133.7 24.14C134.09 23.66 134.28 22.89 134.28 21.83C134.28 20.79 134.09 20.03 133.7 19.55C133.34 19.06 132.73 18.81 131.89 18.81C131.07 18.81 130.47 19.06 130.11 19.55C129.74 20.03 129.56 20.79 129.56 21.83C129.56 22.89 129.74 23.66 130.11 24.14C130.47 24.61 131.07 24.85 131.89 24.85Z" fill="#FB8351" fill-opacity="1.000000" fill-rule="nonzero"/>
	<path id="Vector" d="M141.82 13.6L141.82 9.86L147.39 9.86L147.39 13.6L141.82 13.6ZM142.23 28.34L142.23 19.09L140.33 19.09L140.77 15.33L147.39 15.33L147.39 28.34L142.23 28.34Z" fill="#FFFFFF" fill-opacity="1.000000" fill-rule="nonzero"/>
	<path id="Vector" d="M149.86 34.26L149.86 15.33L154.34 15.33L154.58 16.37C155.11 15.95 155.69 15.63 156.31 15.41C156.95 15.17 157.69 15.05 158.54 15.05C160.48 15.05 161.97 15.55 163.01 16.53C164.07 17.5 164.6 19.16 164.6 21.5C164.6 23.83 164.04 25.59 162.93 26.8C161.81 28.01 160.27 28.61 158.32 28.61C157.02 28.61 155.92 28.36 155.02 27.87L155.02 34.26L149.86 34.26ZM157 24.85C157.75 24.85 158.33 24.59 158.73 24.05C159.13 23.52 159.33 22.7 159.33 21.58C159.33 20.5 159.14 19.77 158.75 19.39C158.39 19 157.82 18.81 157.05 18.81C156.28 18.81 155.61 19.07 155.02 19.58L155.02 24.19C155.32 24.41 155.61 24.58 155.9 24.69C156.19 24.8 156.56 24.85 157 24.85Z" fill="#FFFFFF" fill-opacity="1.000000" fill-rule="nonzero"/>
	<path id="Vector" d="M171.48 28.61C170.36 28.61 169.31 28.53 168.32 28.36C167.35 28.22 166.58 28.03 166.02 27.79L166.02 24.08C166.66 24.37 167.42 24.6 168.29 24.77C169.19 24.93 169.95 25.02 170.57 25.02C171.23 25.02 171.72 25 172.05 24.96C172.4 24.92 172.58 24.77 172.58 24.49C172.58 24.18 172.27 23.94 171.67 23.78C171.07 23.62 170.31 23.38 169.39 23.07C168.2 22.65 167.31 22.15 166.73 21.58C166.14 21.02 165.85 20.19 165.85 19.11C165.85 17.81 166.36 16.82 167.39 16.12C168.41 15.41 170.02 15.05 172.22 15.05C173.06 15.05 173.93 15.12 174.83 15.24C175.72 15.37 176.43 15.52 176.94 15.68L176.94 19.31C176.39 19.07 175.79 18.89 175.13 18.78C174.49 18.67 173.9 18.62 173.37 18.62C172.79 18.62 172.26 18.65 171.81 18.7C171.35 18.76 171.12 18.91 171.12 19.17C171.12 19.46 171.38 19.67 171.89 19.8C172.42 19.93 173.13 20.13 174 20.4C174.99 20.7 175.76 21.02 176.31 21.36C176.88 21.71 177.27 22.13 177.49 22.63C177.73 23.12 177.85 23.73 177.85 24.47C177.85 25.78 177.31 26.81 176.23 27.54C175.16 28.25 173.58 28.61 171.48 28.61Z" fill="#FFFFFF" fill-opacity="1.000000" fill-rule="nonzero"/>
	<path id="Vector" d="M184.5 28.61C182.98 28.61 181.79 28.18 180.93 27.32C180.07 26.46 179.64 25.2 179.64 23.53L179.64 15.33L184.8 15.33L184.8 23.12C184.8 24.26 185.38 24.82 186.53 24.82C186.95 24.82 187.36 24.73 187.76 24.55C188.17 24.37 188.49 24.14 188.72 23.86L188.72 15.33L193.88 15.33L193.88 28.34L189.05 28.34L188.92 27.35C188.4 27.71 187.77 28.02 187.02 28.25C186.29 28.49 185.45 28.61 184.5 28.61Z" fill="#FFFFFF" fill-opacity="1.000000" fill-rule="nonzero"/>
	<path id="Vector" d="M196.34 28.34L196.34 15.33L201.12 15.33L201.25 16.37C201.82 15.98 202.45 15.67 203.15 15.44C203.86 15.18 204.64 15.05 205.48 15.05C206.32 15.05 206.98 15.17 207.46 15.41C207.93 15.65 208.32 15.99 208.61 16.45C209.19 16.03 209.85 15.69 210.59 15.44C211.34 15.18 212.21 15.05 213.22 15.05C214.74 15.05 215.86 15.45 216.57 16.26C217.28 17.05 217.64 18.25 217.64 19.88L217.64 28.34L212.56 28.34L212.56 20.49C212.56 19.9 212.44 19.49 212.21 19.25C211.97 18.99 211.57 18.87 211.02 18.87C210.31 18.87 209.73 19.12 209.27 19.64C209.3 19.87 209.32 20.1 209.32 20.32C209.32 20.52 209.32 20.75 209.32 21.01L209.32 28.34L204.55 28.34L204.55 20.4C204.55 19.87 204.46 19.49 204.27 19.25C204.09 18.99 203.74 18.87 203.23 18.87C202.88 18.87 202.54 18.96 202.21 19.14C201.88 19.32 201.59 19.54 201.34 19.8L201.34 28.34L196.34 28.34Z" fill="#FFFFFF" fill-opacity="1.000000" fill-rule="nonzero"/>
	<path id="Vector" d="M138 50.73C136.63 50.73 135.49 50.47 134.58 49.96C133.68 49.43 133 48.7 132.56 47.76C132.11 46.81 131.88 45.7 131.88 44.43C131.88 43.04 132.09 41.83 132.52 40.8C132.94 39.77 133.6 38.98 134.5 38.42C135.4 37.85 136.56 37.57 137.99 37.57C138.73 37.57 139.39 37.62 139.99 37.73C140.6 37.83 141.16 37.98 141.69 38.16L141.69 39.59C141.16 39.39 140.6 39.24 140.01 39.13C139.41 39.02 138.79 38.96 138.13 38.96C136.98 38.96 136.06 39.17 135.39 39.61C134.72 40.05 134.23 40.67 133.94 41.49C133.65 42.31 133.5 43.29 133.5 44.43C133.5 46 133.88 47.22 134.62 48.07C135.37 48.92 136.55 49.34 138.16 49.34C138.76 49.34 139.36 49.3 139.97 49.2C140.59 49.11 141.16 48.97 141.69 48.77L141.69 50.22C141.18 50.37 140.62 50.5 140.01 50.59C139.41 50.68 138.75 50.73 138 50.73Z" fill="#FFFFFF" fill-opacity="1.000000" fill-rule="nonzero"/>
	<path id="Vector" d="M148.37 50.73C146.73 50.73 145.53 50.31 144.78 49.48C144.04 48.64 143.67 47.42 143.67 45.83C143.67 44.26 144.05 43.05 144.8 42.21C145.55 41.36 146.74 40.94 148.37 40.94C149.99 40.94 151.18 41.36 151.94 42.21C152.69 43.05 153.07 44.26 153.07 45.83C153.07 47.42 152.7 48.64 151.96 49.48C151.22 50.31 150.02 50.73 148.37 50.73ZM148.37 49.34C149.49 49.34 150.28 49.07 150.75 48.51C151.21 47.94 151.44 47.05 151.44 45.83C151.44 44.62 151.2 43.73 150.73 43.18C150.27 42.61 149.48 42.33 148.37 42.33C147.26 42.33 146.47 42.61 145.99 43.18C145.53 43.73 145.3 44.62 145.3 45.83C145.3 47.05 145.53 47.94 145.99 48.51C146.45 49.07 147.25 49.34 148.37 49.34Z" fill="#FFFFFF" fill-opacity="1.000000" fill-rule="nonzero"/>
	<path id="Vector" d="M155.05 50.53L155.05 49.16L156.52 49.16L156.52 50.53L155.05 50.53Z" fill="#FFFFFF" fill-opacity="1.000000" fill-rule="nonzero"/>
</svg>
