<svg width="294.449219" height="59.000000" viewBox="0 0 294.449 59" fill="none" xmlns="http://www.w3.org/2000/svg" xmlns:xlink="http://www.w3.org/1999/xlink">
	<desc>
			Created with Pixso.
	</desc>
	<defs/>
	<path d="M41.81 48.83L2.33 21.59C-1.67 18.83 -0.31 13.09 4.68 11.74L46.64 0.35C47.53 0.03 48.48 -0.08 49.42 0.04C50.36 0.17 51.25 0.51 52.03 1.04C52.81 1.58 53.45 2.29 53.89 3.13C54.34 3.96 54.58 4.89 54.6 5.83L52.11 44.45C51.82 49.03 45.81 51.59 41.81 48.83Z" fill="#E9327C" fill-opacity="1.000000" fill-rule="nonzero"/>
	<path d="M29.29 55.55L6.03 10.06C5.5 9.02 5.27 7.86 5.36 6.69C5.45 5.53 5.86 4.41 6.54 3.46C7.22 2.51 8.16 1.77 9.24 1.32C10.31 0.87 11.5 0.73 12.65 0.91L55.75 7.56C56.75 7.71 57.69 8.1 58.5 8.69C59.32 9.27 59.98 10.05 60.44 10.94C60.89 11.84 61.13 12.83 61.13 13.83C61.13 14.83 60.89 15.82 60.43 16.72L40.58 55.55C40.05 56.59 39.24 57.46 38.24 58.07C37.24 58.67 36.1 59 34.93 59C33.77 58.99 32.62 58.67 31.63 58.06C30.63 57.46 29.82 56.59 29.29 55.55Z" fill="#1DACE3" fill-opacity="1.000000" fill-rule="nonzero"/>
	<path d="M54.49 7.36L33.01 4.05L6.62 11.21L17.16 31.81L41.81 48.83C42.36 49.2 42.96 49.48 43.59 49.67L52.95 31.35L54.49 7.36Z" fill="#3A68B8" fill-opacity="1.000000" fill-rule="nonzero"/>
	<path d="M163.33 12.68C163.33 11.88 163.57 11.1 164.01 10.44C164.45 9.77 165.09 9.25 165.82 8.95C166.56 8.64 167.37 8.56 168.16 8.72C168.94 8.88 169.66 9.26 170.22 9.82C170.79 10.39 171.17 11.11 171.33 11.89C171.49 12.68 171.41 13.49 171.1 14.23C170.79 14.96 170.28 15.59 169.61 16.04C168.95 16.48 168.17 16.72 167.37 16.72C166.3 16.71 165.28 16.28 164.53 15.52C163.77 14.77 163.34 13.75 163.33 12.68ZM164 18.69L170.74 18.69L170.74 41.13L164 41.13L164 18.69Z" fill="#FFFFFF" fill-opacity="1.000000" fill-rule="nonzero"/>
	<path d="M199.81 29.91C199.88 31.39 199.67 32.88 199.17 34.27C198.67 35.67 197.91 36.96 196.91 38.06C195.91 39.16 194.71 40.06 193.37 40.69C192.02 41.32 190.57 41.69 189.08 41.75C187.84 41.82 186.59 41.61 185.43 41.14C184.28 40.67 183.24 39.94 182.4 39.02L182.4 50.1L175.67 50.1L175.67 18.69L182.4 18.69L182.4 20.8C183.24 19.88 184.28 19.15 185.43 18.68C186.59 18.21 187.84 18 189.08 18.07C190.57 18.13 192.02 18.5 193.37 19.13C194.71 19.76 195.91 20.66 196.91 21.76C197.91 22.86 198.67 24.14 199.17 25.54C199.67 26.94 199.88 28.43 199.81 29.91ZM193.08 29.91C193.05 28.86 192.71 27.84 192.11 26.98C191.51 26.12 190.67 25.45 189.69 25.07C188.71 24.69 187.64 24.6 186.61 24.82C185.59 25.04 184.65 25.56 183.91 26.31C183.18 27.07 182.68 28.02 182.49 29.05C182.29 30.08 182.41 31.15 182.82 32.12C183.22 33.09 183.91 33.91 184.78 34.49C185.66 35.07 186.69 35.38 187.74 35.38C188.46 35.42 189.18 35.3 189.85 35.03C190.52 34.77 191.13 34.36 191.63 33.84C192.14 33.33 192.53 32.71 192.78 32.03C193.02 31.35 193.13 30.63 193.08 29.91Z" fill="#FFFFFF" fill-opacity="1.000000" fill-rule="nonzero"/>
	<path d="M220.58 34.39C220.58 39.55 216.09 41.75 211.25 41.75C209.29 41.93 207.32 41.51 205.6 40.56C203.88 39.61 202.49 38.16 201.6 36.41L207.43 33.09C207.67 33.9 208.18 34.61 208.87 35.09C209.57 35.57 210.4 35.8 211.25 35.73C212.86 35.73 213.67 35.24 213.67 34.34C213.67 31.87 202.63 33.17 202.63 25.41C202.63 20.52 206.76 18.05 211.43 18.05C213.19 18 214.92 18.42 216.46 19.26C218 20.1 219.28 21.34 220.18 22.85L214.44 25.95C214.19 25.36 213.77 24.86 213.23 24.51C212.7 24.15 212.07 23.97 211.43 23.97C210.27 23.97 209.55 24.41 209.55 25.23C209.54 27.8 220.58 26.1 220.58 34.39Z" fill="#FFFFFF" fill-opacity="1.000000" fill-rule="nonzero"/>
	<path d="M245.17 18.69L245.17 41.13L238.44 41.13L238.44 39.01C237.67 39.94 236.68 40.68 235.57 41.15C234.45 41.63 233.24 41.83 232.03 41.75C227.5 41.75 223.64 38.52 223.64 32.46L223.64 18.69L230.37 18.69L230.37 31.48C230.31 32.01 230.37 32.56 230.55 33.06C230.72 33.57 231 34.04 231.37 34.43C231.75 34.81 232.2 35.12 232.7 35.31C233.2 35.51 233.74 35.59 234.27 35.56C236.74 35.56 238.45 34.13 238.45 30.94L238.45 18.69L245.17 18.69Z" fill="#FFFFFF" fill-opacity="1.000000" fill-rule="nonzero"/>
	<path d="M283.75 27.35L283.75 41.12L277.02 41.12L277.02 27.93C277.02 25.69 275.94 24.25 273.79 24.25C271.54 24.25 270.29 25.83 270.29 28.47L270.29 41.12L263.56 41.12L263.56 27.93C263.56 25.69 262.48 24.25 260.33 24.25C258.08 24.25 256.83 25.83 256.83 28.47L256.83 41.12L250.1 41.12L250.1 18.69L256.84 18.69L256.84 20.75C257.54 19.83 258.45 19.11 259.5 18.64C260.55 18.17 261.7 17.97 262.85 18.06C264 18 265.15 18.24 266.18 18.76C267.21 19.28 268.09 20.06 268.73 21.02C269.47 20.01 270.46 19.21 271.6 18.7C272.74 18.18 273.99 17.96 275.24 18.06C280.39 18.06 283.75 21.74 283.75 27.35Z" fill="#FFFFFF" fill-opacity="1.000000" fill-rule="nonzero"/>
	<path d="M294.44 13.56C294.44 16.32 292.21 18.55 289.45 18.55C286.69 18.55 284.45 16.32 284.45 13.56C284.45 10.8 286.69 8.56 289.45 8.56C292.21 8.56 294.44 10.8 294.44 13.56Z" fill="#FFFFFF" fill-opacity="1.000000" fill-rule="evenodd"/>
	<path d="M71.45 8.37L78.18 8.37L78.18 41.13L71.45 41.13L71.45 8.37ZM81.99 29.91C81.98 27.56 82.68 25.26 83.98 23.3C85.28 21.34 87.13 19.81 89.3 18.9C91.47 18 93.86 17.76 96.17 18.21C98.48 18.67 100.6 19.79 102.27 21.46C103.93 23.12 105.07 25.23 105.53 27.54C105.99 29.85 105.76 32.24 104.86 34.41C103.96 36.58 102.44 38.44 100.48 39.75C98.53 41.06 96.23 41.75 93.88 41.75C92.31 41.77 90.76 41.48 89.32 40.89C87.87 40.3 86.56 39.43 85.45 38.32C84.34 37.22 83.47 35.91 82.87 34.46C82.28 33.02 81.98 31.47 81.99 29.91ZM99.04 29.91C99.02 28.89 98.69 27.91 98.11 27.08C97.53 26.25 96.71 25.61 95.77 25.24C94.82 24.87 93.79 24.78 92.8 25C91.8 25.21 90.9 25.71 90.19 26.44C89.48 27.17 89 28.09 88.81 29.08C88.62 30.08 88.73 31.11 89.13 32.05C89.52 32.98 90.18 33.78 91.03 34.34C91.88 34.9 92.87 35.2 93.88 35.2C94.58 35.22 95.27 35.1 95.91 34.84C96.56 34.58 97.14 34.19 97.63 33.69C98.11 33.19 98.49 32.6 98.74 31.95C98.98 31.3 99.09 30.6 99.05 29.91L99.04 29.91ZM132.6 18.69L132.6 40C132.6 47.54 126.72 50.72 120.76 50.72C118.66 50.88 116.55 50.46 114.68 49.5C112.8 48.54 111.23 47.09 110.12 45.29L115.87 41.97C116.33 42.91 117.07 43.68 117.98 44.18C118.9 44.69 119.94 44.9 120.98 44.8C121.64 44.89 122.32 44.83 122.96 44.62C123.59 44.42 124.18 44.07 124.66 43.61C125.15 43.15 125.53 42.59 125.76 41.96C126 41.34 126.1 40.67 126.04 40L126.04 37.93C125.25 38.9 124.25 39.66 123.11 40.17C121.98 40.68 120.74 40.91 119.49 40.85C116.53 40.76 113.72 39.52 111.66 37.39C109.6 35.26 108.44 32.42 108.44 29.45C108.44 26.49 109.6 23.65 111.66 21.52C113.72 19.39 116.53 18.15 119.49 18.06C120.74 18 121.98 18.23 123.11 18.74C124.25 19.24 125.25 20.01 126.04 20.97L126.04 18.69L132.6 18.69ZM126.05 29.45C126.1 28.37 125.82 27.3 125.25 26.37C124.68 25.45 123.84 24.72 122.85 24.28C121.87 23.83 120.77 23.69 119.7 23.87C118.63 24.06 117.64 24.56 116.86 25.31C116.08 26.06 115.54 27.03 115.31 28.09C115.08 29.15 115.17 30.25 115.58 31.26C115.98 32.26 116.68 33.13 117.58 33.73C118.47 34.34 119.53 34.67 120.62 34.67C121.33 34.72 122.04 34.62 122.7 34.38C123.37 34.14 123.98 33.76 124.49 33.27C125 32.78 125.4 32.18 125.67 31.53C125.94 30.87 126.07 30.17 126.05 29.46L126.05 29.45ZM136.41 29.89C136.41 27.54 137.1 25.24 138.4 23.28C139.7 21.32 141.55 19.79 143.72 18.89C145.89 17.98 148.28 17.74 150.59 18.2C152.9 18.65 155.02 19.78 156.69 21.44C158.35 23.1 159.49 25.22 159.95 27.52C160.41 29.83 160.18 32.22 159.28 34.39C158.38 36.57 156.86 38.43 154.9 39.73C152.95 41.04 150.65 41.74 148.3 41.74C146.74 41.76 145.19 41.46 143.74 40.87C142.3 40.29 140.98 39.42 139.87 38.31C138.77 37.21 137.89 35.9 137.3 34.46C136.7 33.02 136.4 31.47 136.41 29.91L136.41 29.89ZM153.46 29.89C153.44 28.88 153.11 27.89 152.53 27.06C151.95 26.23 151.13 25.59 150.19 25.22C149.24 24.85 148.21 24.76 147.21 24.98C146.22 25.19 145.31 25.69 144.6 26.42C143.89 27.15 143.42 28.07 143.23 29.07C143.04 30.06 143.15 31.1 143.55 32.03C143.94 32.97 144.6 33.77 145.45 34.33C146.29 34.89 147.29 35.19 148.3 35.19C149 35.21 149.68 35.08 150.33 34.82C150.97 34.56 151.55 34.17 152.03 33.67C152.52 33.18 152.9 32.59 153.14 31.94C153.39 31.29 153.5 30.6 153.46 29.91L153.46 29.89Z" fill="#FFFFFF" fill-opacity="1.000000" fill-rule="nonzero"/>
</svg>
