<svg width="212.299072" height="59.000000" viewBox="0 0 212.299 59" fill="none" xmlns="http://www.w3.org/2000/svg" xmlns:xlink="http://www.w3.org/1999/xlink">
	<desc>
			Created with Pixso.
	</desc>
	<defs/>
	<path id="Vector" d="M105.23 6.43C107.28 4.38 110.61 4.38 112.66 6.43C114.72 8.48 114.72 11.81 112.66 13.86L100.15 26.38C96.56 21.56 96.95 14.71 101.32 10.34L105.23 6.43Z" fill="#4F9E91" fill-opacity="1.000000" fill-rule="evenodd"/>
	<path id="Vector" d="M123.12 34.67C125.18 36.72 125.18 40.05 123.12 42.1C121.07 44.15 117.74 44.15 115.69 42.1L103.17 29.59C107.99 25.99 114.84 26.38 119.21 30.76L123.12 34.67Z" fill="#EBE1C5" fill-opacity="1.000000" fill-rule="evenodd"/>
	<path id="Vector" d="M94.89 52.56C92.83 54.61 89.5 54.61 87.45 52.56C85.4 50.51 85.4 47.18 87.45 45.13L99.97 32.61C103.56 37.43 103.17 44.28 98.8 48.65L94.89 52.56Z" fill="#EBCC6E" fill-opacity="1.000000" fill-rule="evenodd"/>
	<path id="Vector" d="M76.99 24.32C74.94 22.27 74.94 18.94 76.99 16.89C79.05 14.83 82.37 14.83 84.43 16.89L96.94 29.4C92.13 33 85.28 32.61 80.9 28.23L76.99 24.32Z" fill="#ED834E" fill-opacity="1.000000" fill-rule="evenodd"/>
	<path id="Vector" d="M102.43 51.03C105.46 47.66 106.87 43.35 106.65 39.11L112.67 45.13C112.68 45.14 112.7 45.16 112.71 45.17L112.71 49.46C112.71 52.36 110.36 54.72 107.45 54.72C105.1 54.72 103.1 53.17 102.43 51.03Z" fill="#ED834E" fill-opacity="1.000000" fill-rule="evenodd"/>
	<path id="Vector" d="M78.53 31.87C81.89 34.9 86.2 36.3 90.44 36.09L84.43 42.1C84.41 42.12 84.4 42.13 84.38 42.15L80.09 42.15C77.19 42.15 74.84 39.79 74.84 36.89C74.84 34.53 76.39 32.54 78.53 31.87Z" fill="#4F9E91" fill-opacity="1.000000" fill-rule="evenodd"/>
	<path id="Vector" d="M121.59 27.12C118.23 24.09 113.92 22.69 109.68 22.9L115.69 16.89C115.7 16.87 115.72 16.86 115.73 16.84L120.03 16.84C122.93 16.84 125.28 19.2 125.28 22.1C125.28 24.46 123.73 26.45 121.59 27.12Z" fill="#EBCC6E" fill-opacity="1.000000" fill-rule="evenodd"/>
	<path id="Vector" d="M97.68 7.96C94.66 11.33 93.25 15.63 93.46 19.87L87.45 13.86C87.44 13.85 87.42 13.83 87.41 13.82L87.41 9.53C87.41 6.63 89.76 4.27 92.66 4.27C95.02 4.27 97.02 5.82 97.68 7.96Z" fill="#EBE1C5" fill-opacity="1.000000" fill-rule="evenodd"/>
	<path id="Vector" d="M92.66 0C87.4 0 83.13 4.26 83.13 9.53L83.13 11.38C79.96 10.56 76.45 11.38 73.97 13.86C70.25 17.59 70.25 23.62 73.97 27.35L75.28 28.66C72.46 30.31 70.56 33.38 70.56 36.89C70.56 42.16 74.83 46.42 80.09 46.42L81.95 46.42C81.12 49.59 81.95 53.1 84.43 55.58C88.15 59.31 94.19 59.31 97.91 55.58L101.82 51.67C105.27 48.22 106.88 43.63 106.65 39.11L112.67 45.13C116.39 48.85 122.42 48.85 126.15 45.13C129.87 41.4 129.87 35.37 126.15 31.64L124.84 30.33C127.66 28.68 129.56 25.61 129.56 22.1C129.56 16.84 125.29 12.57 120.03 12.57L118.17 12.57C119 9.4 118.17 5.89 115.69 3.41C111.97 -0.32 105.93 -0.32 102.21 3.41L98.3 7.32C94.85 10.77 93.24 15.36 93.46 19.88L87.45 13.86C87.44 13.85 87.42 13.83 87.41 13.82L87.41 9.53C87.41 6.63 89.76 4.27 92.66 4.27C95.02 4.27 97.02 5.82 97.68 7.96C97.88 7.74 98.08 7.53 98.3 7.32L100.9 4.72C99.24 1.89 96.17 0 92.66 0ZM115.73 16.84C115.72 16.86 115.7 16.87 115.69 16.89L109.68 22.9C113.92 22.69 118.23 24.09 121.59 27.12C123.73 26.45 125.28 24.46 125.28 22.1C125.28 19.2 122.93 16.84 120.03 16.84L115.73 16.84ZM84.38 42.15C84.4 42.13 84.41 42.12 84.43 42.1L90.44 36.09C86.2 36.3 81.89 34.9 78.53 31.87C76.39 32.54 74.84 34.53 74.84 36.89C74.84 39.79 77.19 42.15 80.09 42.15L84.38 42.15ZM78.36 31.72C78.2 31.57 78.04 31.42 77.88 31.26L77.88 31.26C78.04 31.42 78.2 31.57 78.36 31.72ZM107.45 59C103.94 59 100.88 57.1 99.22 54.27L101.82 51.67C102.03 51.46 102.24 51.25 102.43 51.03C103.1 53.17 105.1 54.72 107.45 54.72C110.36 54.72 112.71 52.36 112.71 49.46L112.71 45.17C113.94 46.39 115.42 47.2 116.99 47.61L116.99 49.46C116.99 54.73 112.72 59 107.45 59ZM112.67 6.43C110.61 4.38 107.28 4.38 105.23 6.43L101.32 10.34C96.95 14.72 96.56 21.56 100.15 26.38L112.67 13.86C114.72 11.81 114.72 8.48 112.67 6.43ZM123.12 42.1C125.18 40.05 125.18 36.72 123.12 34.67L119.21 30.76C114.84 26.38 107.99 25.99 103.17 29.59L115.69 42.1C117.74 44.15 121.07 44.15 123.12 42.1ZM94.89 52.56C92.83 54.61 89.5 54.61 87.45 52.56C85.4 50.51 85.4 47.18 87.45 45.13L99.97 32.61C103.56 37.43 103.17 44.27 98.8 48.65L94.89 52.56ZM76.99 16.89C74.94 18.94 74.94 22.27 76.99 24.32L80.9 28.23C85.28 32.61 92.13 33 96.94 29.4L84.43 16.89C82.37 14.84 79.05 14.84 76.99 16.89Z" fill="#3D3A2C" fill-opacity="1.000000" fill-rule="evenodd"/>
	<path id="Vector" d="M0 19.27L4.67 19.27L4.67 33.8L12.7 33.8L12.7 37.74L0 37.74L0 19.27Z" fill="#FFFFFF" fill-opacity="1.000000" fill-rule="nonzero"/>
	<path id="Vector" d="M21.19 38.13C19.62 38.13 18.25 37.85 17.07 37.29C15.89 36.71 14.97 35.91 14.32 34.91C13.69 33.89 13.37 32.72 13.37 31.4C13.37 30.08 13.69 28.91 14.32 27.91C14.97 26.89 15.89 26.1 17.07 25.53C18.25 24.95 19.62 24.66 21.19 24.66C22.76 24.66 24.13 24.95 25.31 25.53C26.49 26.1 27.4 26.89 28.03 27.91C28.68 28.91 29.01 30.08 29.01 31.4C29.01 32.72 28.68 33.89 28.03 34.91C27.4 35.91 26.49 36.71 25.31 37.29C24.13 37.85 22.76 38.13 21.19 38.13ZM21.19 34.51C22.12 34.51 22.86 34.24 23.41 33.7C23.97 33.13 24.25 32.37 24.25 31.4C24.25 30.43 23.97 29.67 23.41 29.13C22.86 28.56 22.12 28.28 21.19 28.28C20.26 28.28 19.51 28.56 18.94 29.13C18.4 29.67 18.12 30.43 18.12 31.4C18.12 32.37 18.4 33.13 18.94 33.7C19.51 34.24 20.26 34.51 21.19 34.51Z" fill="#FFFFFF" fill-opacity="1.000000" fill-rule="nonzero"/>
	<path id="Vector" d="M37.74 43.81C36.89 43.81 36.04 43.73 35.18 43.57C34.33 43.42 33.6 43.2 32.98 42.94L32.98 39.72C34.38 40.32 35.96 40.62 37.74 40.62C39.02 40.62 39.95 40.35 40.51 39.82C41.09 39.29 41.38 38.52 41.38 37.5L41.38 36.73C40.87 37.17 40.24 37.52 39.48 37.76C38.74 38.01 37.95 38.13 37.11 38.13C35.77 38.13 34.59 37.85 33.57 37.29C32.54 36.72 31.74 35.93 31.16 34.91C30.6 33.89 30.32 32.72 30.32 31.4C30.32 30.06 30.6 28.88 31.16 27.86C31.73 26.84 32.52 26.05 33.54 25.51C34.56 24.94 35.73 24.66 37.05 24.66C38.87 24.66 40.36 25.22 41.54 26.33L41.54 25.06L46.03 25.06L46.03 36.86C46.03 39.07 45.36 40.77 44 41.99C42.66 43.2 40.57 43.81 37.74 43.81ZM38.27 34.54C38.99 34.54 39.63 34.36 40.2 33.99C40.76 33.62 41.16 33.12 41.38 32.51L41.38 30.29C41.14 29.67 40.73 29.19 40.17 28.83C39.61 28.47 38.97 28.28 38.27 28.28C37.32 28.28 36.55 28.56 35.97 29.13C35.39 29.67 35.1 30.42 35.1 31.37C35.1 32.34 35.39 33.11 35.97 33.7C36.55 34.26 37.32 34.54 38.27 34.54Z" fill="#FFFFFF" fill-opacity="1.000000" fill-rule="nonzero"/>
	<path id="Vector" d="M55.03 38.13C53.46 38.13 52.09 37.85 50.91 37.29C49.73 36.71 48.82 35.91 48.16 34.91C47.53 33.89 47.21 32.72 47.21 31.4C47.21 30.08 47.53 28.91 48.16 27.91C48.82 26.89 49.73 26.1 50.91 25.53C52.09 24.95 53.46 24.66 55.03 24.66C56.6 24.66 57.97 24.95 59.15 25.53C60.33 26.1 61.24 26.89 61.87 27.91C62.52 28.91 62.85 30.08 62.85 31.4C62.85 32.72 62.52 33.89 61.87 34.91C61.24 35.91 60.33 36.71 59.15 37.29C57.97 37.85 56.6 38.13 55.03 38.13ZM55.03 34.51C55.96 34.51 56.7 34.24 57.25 33.7C57.81 33.13 58.1 32.37 58.1 31.4C58.1 30.43 57.81 29.67 57.25 29.13C56.7 28.56 55.96 28.28 55.03 28.28C54.1 28.28 53.35 28.56 52.79 29.13C52.24 29.67 51.97 30.43 51.97 31.4C51.97 32.37 52.24 33.13 52.79 33.7C53.35 34.24 54.1 34.51 55.03 34.51Z" fill="#FFFFFF" fill-opacity="1.000000" fill-rule="nonzero"/>
	<path id="Vector" d="M137.41 19.27L142.09 19.27L142.09 37.74L137.41 37.74L137.41 19.27Z" fill="#FFFFFF" fill-opacity="1.000000" fill-rule="nonzero"/>
	<path id="Vector" d="M144.46 25.06L148.95 25.06L148.95 26.33C150.13 25.22 151.62 24.66 153.44 24.66C154.76 24.66 155.93 24.94 156.95 25.51C157.97 26.05 158.76 26.84 159.33 27.86C159.89 28.86 160.17 30.03 160.17 31.37C160.17 32.69 159.89 33.87 159.33 34.91C158.76 35.93 157.97 36.72 156.95 37.29C155.95 37.85 154.78 38.13 153.44 38.13C152.59 38.13 151.78 38 151.01 37.74C150.25 37.49 149.62 37.15 149.11 36.71L149.11 43.52L144.46 43.52L144.46 25.06ZM152.22 34.51C153.17 34.51 153.94 34.23 154.52 33.67C155.1 33.11 155.39 32.34 155.39 31.37C155.39 30.4 155.1 29.65 154.52 29.1C153.94 28.54 153.17 28.25 152.22 28.25C151.52 28.25 150.88 28.44 150.32 28.81C149.76 29.16 149.35 29.65 149.11 30.26L149.11 32.51C149.35 33.12 149.76 33.62 150.32 33.99C150.88 34.34 151.52 34.51 152.22 34.51Z" fill="#FFFFFF" fill-opacity="1.000000" fill-rule="nonzero"/>
	<path id="Vector" d="M167.1 38.13C166.08 38.13 165.02 38.03 163.91 37.82C162.8 37.62 161.92 37.34 161.27 36.97L161.27 33.56C161.99 33.99 162.85 34.34 163.85 34.62C164.88 34.88 165.81 35.02 166.65 35.02C167.27 35.02 167.72 34.97 168 34.88C168.28 34.8 168.42 34.62 168.42 34.36C168.42 34.14 168.33 33.98 168.13 33.85C167.96 33.71 167.62 33.57 167.13 33.43C166.65 33.27 166.1 33.11 165.47 32.93C164.39 32.61 163.55 32.29 162.93 31.95C162.31 31.62 161.86 31.19 161.56 30.68C161.26 30.17 161.11 29.53 161.11 28.76C161.11 27.38 161.64 26.36 162.72 25.69C163.81 25 165.3 24.66 167.18 24.66C168.1 24.66 169.06 24.76 170.06 24.95C171.08 25.15 171.85 25.4 172.36 25.72L172.36 29.07C171.83 28.72 171.13 28.43 170.25 28.2C169.38 27.97 168.57 27.86 167.82 27.86C167.22 27.86 166.75 27.92 166.42 28.04C166.08 28.15 165.91 28.34 165.91 28.62C165.91 28.89 166.08 29.09 166.42 29.23C166.75 29.37 167.35 29.55 168.21 29.76C168.78 29.9 169.01 29.96 168.93 29.94C170.05 30.24 170.92 30.58 171.54 30.95C172.16 31.32 172.59 31.76 172.83 32.27C173.1 32.76 173.23 33.4 173.23 34.17C173.23 35.39 172.7 36.35 171.65 37.08C170.61 37.78 169.09 38.13 167.1 38.13Z" fill="#FFFFFF" fill-opacity="1.000000" fill-rule="nonzero"/>
	<path id="Vector" d="M180.17 38.13C178.43 38.13 177.12 37.65 176.24 36.68C175.37 35.71 174.94 34.43 174.94 32.85L174.94 25.06L179.59 25.06L179.59 32.32C179.59 33.78 180.25 34.51 181.57 34.51C182.17 34.51 182.72 34.37 183.21 34.09C183.7 33.81 184.11 33.4 184.42 32.85L184.42 25.06L189.07 25.06L189.07 37.74L184.58 37.74L184.58 36.36C184.04 36.94 183.38 37.38 182.6 37.68C181.83 37.98 181.02 38.13 180.17 38.13Z" fill="#FFFFFF" fill-opacity="1.000000" fill-rule="nonzero"/>
	<path id="Vector" d="M191.45 25.06L195.76 25.06L195.76 26.43C196.29 25.87 196.9 25.44 197.58 25.14C198.27 24.82 199 24.66 199.77 24.66C200.73 24.66 201.48 24.8 202.05 25.08C202.63 25.37 203.09 25.79 203.45 26.35C203.97 25.82 204.62 25.41 205.37 25.11C206.13 24.81 206.9 24.66 207.67 24.66C209.35 24.66 210.53 25.09 211.24 25.96C211.94 26.8 212.29 28.02 212.29 29.63L212.29 37.74L207.86 37.74L207.86 30.29C207.86 29.58 207.73 29.07 207.46 28.76C207.2 28.44 206.76 28.28 206.14 28.28C205.35 28.28 204.7 28.56 204.21 29.13C204.23 29.42 204.24 29.88 204.24 30.5L204.24 37.74L199.8 37.74L199.8 30.1C199.8 29.45 199.69 28.98 199.46 28.7C199.23 28.42 198.82 28.28 198.24 28.28C197.34 28.28 196.57 28.78 195.92 29.79L195.92 37.74L191.45 37.74L191.45 25.06Z" fill="#FFFFFF" fill-opacity="1.000000" fill-rule="nonzero"/>
</svg>
