<svg width="206.904785" height="59.000000" viewBox="0 0 206.905 59" fill="none" xmlns="http://www.w3.org/2000/svg" xmlns:xlink="http://www.w3.org/1999/xlink">
	<desc>
			Created with Pixso.
	</desc>
	<defs/>
	<path id="Vector" d="M29.5 0C25.62 0 21.78 0.76 18.21 2.24C14.63 3.72 11.37 5.9 8.64 8.64C5.9 11.37 3.72 14.63 2.24 18.21C0.76 21.78 0 25.62 0 29.5C0 33.37 0.76 37.21 2.24 40.78C3.72 44.36 5.9 47.62 8.64 50.35C11.37 53.09 14.63 55.27 18.21 56.75C21.78 58.23 25.62 59 29.5 59L29.5 44.25C27.56 44.25 25.64 43.86 23.85 43.12C22.06 42.38 20.43 41.29 19.07 39.92C17.7 38.56 16.61 36.93 15.87 35.14C15.13 33.35 14.75 31.43 14.75 29.5C14.75 27.56 15.13 25.64 15.87 23.85C16.61 22.06 17.7 20.43 19.07 19.07C20.43 17.7 22.06 16.61 23.85 15.87C25.64 15.13 27.56 14.75 29.5 14.75L29.5 0Z" fill="#0F52FF" fill-opacity="1.000000" fill-rule="nonzero"/>
	<path id="Vector" d="M39.33 29.5C39.33 34.93 34.93 39.33 29.5 39.33C24.06 39.33 19.66 34.93 19.66 29.5C19.66 24.06 24.06 19.66 29.5 19.66C34.93 19.66 39.33 24.06 39.33 29.5Z" fill="#0F52FF" fill-opacity="1.000000" fill-rule="evenodd"/>
	<path id="Vector" d="M0 29.5C0 33.37 0.76 37.21 2.24 40.78C3.72 44.36 5.9 47.62 8.64 50.35C11.37 53.09 14.63 55.27 18.21 56.75C21.78 58.23 25.62 59 29.5 59C33.37 59 37.21 58.23 40.78 56.75C44.36 55.27 47.62 53.09 50.35 50.35C53.09 47.62 55.27 44.36 56.75 40.78C58.23 37.21 59 33.37 59 29.5L44.25 29.5C44.25 31.43 43.86 33.35 43.12 35.14C42.38 36.93 41.29 38.56 39.92 39.92C38.56 41.29 36.93 42.38 35.14 43.12C33.35 43.86 31.43 44.25 29.5 44.25C27.56 44.25 25.64 43.86 23.85 43.12C22.06 42.38 20.43 41.29 19.07 39.92C17.7 38.56 16.61 36.93 15.87 35.14C15.13 33.35 14.75 31.43 14.75 29.5L0 29.5Z" fill="#5BD0F4" fill-opacity="1.000000" fill-rule="nonzero"/>
	<path id="Vector" d="M39.33 29.5C39.33 26.89 38.29 24.39 36.45 22.54C34.6 20.7 32.1 19.66 29.5 19.66C26.89 19.66 24.39 20.7 22.54 22.54C20.7 24.39 19.66 26.89 19.66 29.5L29.5 29.5L39.33 29.5Z" fill="#5BD0F4" fill-opacity="1.000000" fill-rule="nonzero"/>
	<path id="Vector" d="M74.4 18.41L70.74 18.41L70.74 38.77L74.4 38.77L74.4 18.41Z" fill="#0F52FF" fill-opacity="1.000000" fill-rule="nonzero"/>
	<path id="Vector" d="M76.79 31.56C76.79 36.27 80.05 39.17 84.35 39.17C88.66 39.17 91.92 36.27 91.92 31.56C91.92 26.84 88.66 23.94 84.35 23.94C80.05 23.94 76.79 26.84 76.79 31.56ZM80.46 31.56C80.46 28.76 82.09 27.14 84.35 27.14C86.62 27.14 88.25 28.76 88.25 31.56C88.25 34.35 86.62 35.98 84.35 35.98C82.09 35.98 80.46 34.35 80.46 31.56Z" fill="#0F52FF" fill-opacity="1.000000" fill-rule="nonzero"/>
	<path id="Vector" d="M105.01 24.34L105.01 26.29L104.72 26.29C103.85 25.04 102.45 23.94 99.95 23.94C96.52 23.94 93.43 26.84 93.43 31.32C93.43 35.8 96.52 38.71 99.95 38.71C102.45 38.71 103.85 37.57 104.66 36.44L104.95 36.44L104.95 37.84C104.95 40.63 103.32 41.91 100.94 41.91C98.55 41.91 97.33 40.63 96.84 38.97L93.55 40.4C94.31 42.58 96.52 44.99 101 44.99C105.59 44.99 108.61 42.58 108.61 37.92L108.61 24.34L105.01 24.34ZM101.05 35.57C98.79 35.57 97.1 33.94 97.1 31.32C97.1 28.71 98.79 27.08 101.05 27.08C103.32 27.08 105.01 28.71 105.01 31.32C105.01 33.94 103.32 35.57 101.05 35.57Z" fill="#0F52FF" fill-opacity="1.000000" fill-rule="nonzero"/>
	<path id="Vector" d="M110.98 31.56C110.98 36.27 114.24 39.17 118.55 39.17C122.85 39.17 126.11 36.27 126.11 31.56C126.11 26.84 122.85 23.94 118.55 23.94C114.24 23.94 110.98 26.84 110.98 31.56ZM114.65 31.56C114.65 28.76 116.28 27.14 118.55 27.14C120.81 27.14 122.44 28.76 122.44 31.56C122.44 34.35 120.81 35.98 118.55 35.98C116.28 35.98 114.65 34.35 114.65 31.56Z" fill="#0F52FF" fill-opacity="1.000000" fill-rule="nonzero"/>
	<path id="Vector" d="M128.98 20.16C128.98 21.64 130.12 22.66 131.57 22.66C133.02 22.66 134.16 21.64 134.16 20.16C134.16 18.67 133.02 17.66 131.57 17.66C130.12 17.66 128.98 18.67 128.98 20.16ZM133.4 24.34L129.74 24.34L129.74 38.77L133.4 38.77L133.4 24.34Z" fill="#5BD0F4" fill-opacity="1.000000" fill-rule="nonzero"/>
	<path id="Vector" d="M136.67 44.58L140.33 44.58L140.33 36.91L140.62 36.91C141.44 38.07 142.83 39.17 145.33 39.17C148.76 39.17 151.85 36.27 151.85 31.56C151.85 26.84 148.76 23.94 145.33 23.94C142.83 23.94 141.44 25.04 140.56 26.29L140.27 26.29L140.27 24.34L136.67 24.34L136.67 44.58ZM144.23 36.03C141.96 36.03 140.27 34.41 140.27 31.56C140.27 28.71 141.96 27.08 144.23 27.08C146.5 27.08 148.18 28.71 148.18 31.56C148.18 34.41 146.5 36.03 144.23 36.03Z" fill="#5BD0F4" fill-opacity="1.000000" fill-rule="nonzero"/>
	<path id="Vector" d="M153.98 28.39C153.98 31.24 156.37 32.28 159.39 32.86L160.15 33.01C161.95 33.36 162.77 33.79 162.77 34.73C162.77 35.66 161.95 36.38 160.27 36.38C158.58 36.38 157.21 35.68 156.83 33.59L153.46 34.46C153.96 37.49 156.48 39.17 160.27 39.17C163.93 39.17 166.31 37.46 166.31 34.43C166.31 31.41 163.87 30.6 160.61 29.96L159.86 29.81C158.35 29.52 157.53 29.11 157.53 28.15C157.53 27.28 158.29 26.73 159.68 26.73C161.08 26.73 162.07 27.31 162.42 28.88L165.73 27.86C165.03 25.54 162.91 23.94 159.68 23.94C156.25 23.94 153.98 25.54 153.98 28.39Z" fill="#5BD0F4" fill-opacity="1.000000" fill-rule="nonzero"/>
	<path id="Vector" d="M182.77 38.77L182.77 24.34L179.11 24.34L179.11 31.79C179.11 34.46 177.8 36.03 175.56 36.03C173.58 36.03 172.48 34.96 172.48 32.78L172.48 24.34L168.81 24.34L168.81 32.95C168.81 36.53 171.05 39 174.43 39C177.07 39 178.29 37.84 178.87 36.61L179.16 36.61L179.16 38.77L182.77 38.77Z" fill="#5BD0F4" fill-opacity="1.000000" fill-rule="nonzero"/>
	<path id="Vector" d="M186.02 24.34L186.02 38.77L189.69 38.77L189.69 30.16C189.69 28.18 190.62 27.08 192.3 27.08C193.76 27.08 194.63 27.89 194.63 29.46L194.63 38.77L198.29 38.77L198.29 30.16C198.29 28.18 199.22 27.08 200.91 27.08C202.36 27.08 203.24 27.89 203.24 29.46L203.24 38.77L206.9 38.77L206.9 29.29C206.9 25.8 204.75 24.11 202.07 24.11C199.72 24.11 198.64 25.16 197.94 26.38L197.65 26.38C196.98 25.01 195.79 24.11 193.7 24.11C191.6 24.11 190.47 25.04 189.92 26.15L189.63 26.15L189.63 24.34L186.02 24.34Z" fill="#5BD0F4" fill-opacity="1.000000" fill-rule="nonzero"/>
</svg>
