<svg width="16.000000" height="15.250000" viewBox="0 0 16 15.25" fill="none" xmlns="http://www.w3.org/2000/svg" xmlns:xlink="http://www.w3.org/1999/xlink">
	<desc>
			Created with Pixso.
	</desc>
	<defs/>
	<path id="Vector" d="M14.18 6.31C15.02 7.16 15.5 8.3 15.5 9.5L15.5 14.75L12.5 14.75L12.5 9.5C12.5 9.1 12.34 8.72 12.06 8.43C11.77 8.15 11.39 8 11 8C10.6 8 10.22 8.15 9.93 8.43C9.65 8.72 9.5 9.1 9.5 9.5L9.5 14.75L6.5 14.75L6.5 9.5C6.5 8.3 6.97 7.16 7.81 6.31C8.66 5.47 9.8 5 11 5C12.19 5 13.33 5.47 14.18 6.31Z" stroke="#FFFFFF" stroke-opacity="1.000000" stroke-width="1.000000" stroke-linejoin="round"/>
	<path id="Vector" d="M3.5 5.75L3.5 14.75L0.5 14.75L0.5 5.75L3.5 5.75Z" stroke="#FFFFFF" stroke-opacity="1.000000" stroke-width="1.000000" stroke-linejoin="round"/>
	<path id="Vector" d="M2 3.5C1.17 3.5 0.5 2.82 0.5 2C0.5 1.17 1.17 0.5 2 0.5C2.82 0.5 3.5 1.17 3.5 2C3.5 2.82 2.82 3.5 2 3.5Z" stroke="#FFFFFF" stroke-opacity="1.000000" stroke-width="1.000000" stroke-linejoin="round"/>
</svg>
