<svg width="19.000000" height="13.648438" viewBox="0 0 19 13.6484" fill="none" xmlns="http://www.w3.org/2000/svg" xmlns:xlink="http://www.w3.org/1999/xlink">
	<desc>
			Created with Pixso.
	</desc>
	<defs/>
	<path id="Vector" d="M17.54 1.44C17.27 1.16 16.92 0.95 16.53 0.84C15.12 0.5 9.5 0.5 9.5 0.5C9.5 0.5 3.87 0.5 2.46 0.87C2.07 0.98 1.72 1.19 1.45 1.48C1.17 1.76 0.97 2.12 0.87 2.51C0.61 3.94 0.49 5.38 0.5 6.84C0.49 8.3 0.61 9.76 0.87 11.2C0.98 11.57 1.18 11.91 1.46 12.19C1.74 12.47 2.08 12.66 2.46 12.77C3.87 13.14 9.5 13.14 9.5 13.14C9.5 13.14 15.12 13.14 16.53 12.77C16.92 12.66 17.27 12.45 17.54 12.16C17.82 11.87 18.02 11.52 18.12 11.13C18.37 9.71 18.5 8.28 18.5 6.84C18.5 5.37 18.38 3.91 18.12 2.47C18.02 2.09 17.82 1.73 17.54 1.44Z" stroke="#FFFFFF" stroke-opacity="1.000000" stroke-width="1.000000" stroke-linejoin="round"/>
	<path id="Vector" d="M12.36 6.84L7.65 4.16L7.65 9.51L12.36 6.84Z" stroke="#FFFFFF" stroke-opacity="1.000000" stroke-width="1.000000" stroke-linejoin="round"/>
</svg>
