<svg width="19.390625" height="16.000000" viewBox="0 0 19.3906 16" fill="none" xmlns="http://www.w3.org/2000/svg" xmlns:xlink="http://www.w3.org/1999/xlink">
	<desc>
			Created with Pixso.
	</desc>
	<defs/>
	<path id="Vector" d="M16.26 1.78C15.76 1.2 15.09 0.79 14.34 0.61C13.6 0.42 12.82 0.47 12.1 0.74C11.38 1.01 10.77 1.5 10.34 2.14C9.91 2.77 9.68 3.52 9.69 4.29L9.69 5.13C8.22 5.16 6.77 4.84 5.45 4.18C4.14 3.52 3.01 2.54 2.17 1.34C2.17 1.34 -1.18 8.86 6.35 12.21C4.62 13.38 2.57 13.96 0.5 13.88C8.02 18.06 17.21 13.88 17.21 4.27C17.21 4.03 17.19 3.8 17.15 3.57C18 2.73 18.6 1.67 18.89 0.5C18.09 1.07 17.2 1.5 16.26 1.78Z" stroke="#FFFFFF" stroke-opacity="1.000000" stroke-width="1.000000" stroke-linejoin="round"/>
</svg>
