<svg width="31.995575" height="29.000000" viewBox="0 0 31.9956 29" fill="none" xmlns="http://www.w3.org/2000/svg" xmlns:xlink="http://www.w3.org/1999/xlink">
	<desc>
			Created with Pixso.
	</desc>
	<defs/>
	<path d="M26.2 29C25.55 28.97 24.94 28.69 24.49 28.22C24.05 27.75 23.81 27.12 23.82 26.47C23.83 25.82 24.1 25.2 24.56 24.75C25.03 24.3 25.65 24.04 26.3 24.04C26.94 24.04 27.57 24.3 28.03 24.75C28.49 25.2 28.76 25.82 28.77 26.47C28.79 27.12 28.54 27.75 28.1 28.22C27.66 28.69 27.04 28.97 26.4 29L26.2 29ZM6.75 26.31C6.75 25.78 6.91 25.27 7.2 24.83C7.49 24.39 7.91 24.04 8.4 23.84C8.89 23.64 9.43 23.58 9.95 23.69C10.47 23.79 10.95 24.05 11.32 24.42C11.7 24.79 11.95 25.27 12.06 25.79C12.16 26.31 12.11 26.85 11.9 27.34C11.7 27.83 11.36 28.25 10.92 28.54C10.48 28.84 9.96 29 9.43 29C9.08 29 8.73 28.93 8.4 28.79C8.08 28.66 7.78 28.46 7.53 28.21C7.28 27.96 7.09 27.67 6.95 27.34C6.82 27.02 6.75 26.67 6.75 26.31L6.75 26.31ZM10.55 20.68C10.29 20.68 10.04 20.6 9.83 20.44C9.62 20.28 9.47 20.06 9.4 19.81L4.57 2.36L1.18 2.36C0.86 2.36 0.56 2.23 0.34 2.01C0.12 1.79 0 1.49 0 1.18C0 0.86 0.12 0.56 0.34 0.34C0.56 0.12 0.86 0 1.18 0L5.46 0C5.72 -0.01 5.97 0.08 6.18 0.24C6.38 0.39 6.53 0.61 6.6 0.86L11.43 18.32L24.61 18.32L29 8.27L14.4 8.27C14.24 8.27 14.08 8.25 13.93 8.19C13.79 8.13 13.65 8.05 13.54 7.94C13.42 7.83 13.33 7.69 13.27 7.55C13.21 7.4 13.18 7.25 13.18 7.09C13.18 6.93 13.21 6.77 13.27 6.63C13.33 6.48 13.42 6.35 13.54 6.24C13.65 6.13 13.79 6.04 13.93 5.98C14.08 5.93 14.24 5.9 14.4 5.91L30.81 5.91C31 5.9 31.2 5.95 31.37 6.05C31.54 6.14 31.69 6.27 31.79 6.44C31.9 6.6 31.97 6.79 31.99 6.99C32 7.18 31.97 7.38 31.9 7.56L26.49 19.97C26.4 20.18 26.25 20.36 26.05 20.49C25.86 20.61 25.64 20.68 25.41 20.68L10.55 20.68Z" fill="#E8E8E8" fill-opacity="1.000000" fill-rule="nonzero"/>
</svg>
