<svg width="29.000000" height="29.000000" viewBox="0 0 29 29" fill="none" xmlns="http://www.w3.org/2000/svg" xmlns:xlink="http://www.w3.org/1999/xlink">
	<desc>
			Created with Pixso.
	</desc>
	<defs/>
	<path d="M14.5 19.93C19 19.93 22.65 15.46 22.65 9.96C22.65 4.47 19 0 14.5 0C13.36 0.02 12.24 0.3 11.23 0.82C10.22 1.34 9.34 2.08 8.66 3C7.12 4.99 6.3 7.45 6.34 9.97C6.34 15.46 10 19.93 14.5 19.93ZM14.5 1.81C18 1.81 20.84 5.47 20.84 9.96C20.84 14.46 17.99 18.12 14.5 18.12C11 18.12 8.15 14.46 8.15 9.96C8.15 5.47 11 1.81 14.5 1.81ZM20.84 18.12C20.6 18.12 20.37 18.22 20.2 18.39C20.03 18.56 19.93 18.79 19.93 19.03C19.93 19.27 20.03 19.5 20.2 19.67C20.37 19.84 20.6 19.93 20.84 19.93C22.52 19.93 24.13 20.6 25.32 21.79C26.51 22.98 27.18 24.6 27.18 26.28C27.18 26.52 27.09 26.75 26.92 26.92C26.75 27.09 26.52 27.18 26.28 27.18L2.71 27.18C2.47 27.18 2.24 27.09 2.07 26.92C1.91 26.75 1.81 26.52 1.81 26.28C1.81 24.6 2.48 22.98 3.67 21.79C4.86 20.6 6.47 19.94 8.15 19.93C8.39 19.93 8.62 19.84 8.79 19.67C8.96 19.5 9.06 19.27 9.06 19.03C9.06 18.79 8.96 18.56 8.79 18.39C8.62 18.22 8.39 18.12 8.15 18.12C5.99 18.12 3.92 18.98 2.39 20.51C0.86 22.04 0 24.11 0 26.28C0 27 0.28 27.69 0.79 28.2C1.3 28.71 1.99 28.99 2.71 29L26.28 29C27 28.99 27.69 28.71 28.2 28.2C28.71 27.69 28.99 27 29 26.28C28.99 24.11 28.13 22.04 26.6 20.51C25.07 18.98 23 18.12 20.84 18.12Z" fill="#E8E8E8" fill-opacity="1.000000" fill-rule="nonzero"/>
</svg>
