<svg width="26.001587" height="26.791992" viewBox="0 0 26.0016 26.792" fill="none" xmlns="http://www.w3.org/2000/svg" xmlns:xlink="http://www.w3.org/1999/xlink">
	<desc>
			Created with Pixso.
	</desc>
	<defs/>
	<path d="M18.06 17.41C19.67 15.65 20.63 13.39 20.77 11.01C20.91 8.62 20.23 6.27 18.83 4.33C17.44 2.39 15.43 0.99 13.12 0.36C10.82 -0.27 8.37 -0.08 6.19 0.88C4.01 1.85 2.22 3.53 1.14 5.66C0.05 7.78 -0.27 10.22 0.22 12.55C0.72 14.88 2 16.98 3.86 18.48C5.72 19.98 8.03 20.79 10.42 20.78C12.67 20.79 14.86 20.05 16.66 18.7L24.41 26.5C24.49 26.59 24.59 26.66 24.71 26.71C24.82 26.76 24.94 26.79 25.07 26.79C25.19 26.79 25.31 26.76 25.43 26.71C25.54 26.66 25.64 26.59 25.73 26.5C25.9 26.32 26 26.08 26 25.83C26 25.58 25.9 25.34 25.73 25.16L18.06 17.41ZM1.88 10.28C1.9 8.6 2.41 6.96 3.35 5.56C4.3 4.17 5.64 3.08 7.2 2.45C8.76 1.81 10.47 1.65 12.12 1.99C13.77 2.32 15.29 3.14 16.48 4.34C17.66 5.53 18.47 7.06 18.79 8.71C19.12 10.36 18.95 12.08 18.3 13.63C17.65 15.19 16.56 16.52 15.15 17.45C13.75 18.39 12.1 18.89 10.42 18.89C8.15 18.87 5.97 17.96 4.37 16.35C2.77 14.74 1.88 12.56 1.88 10.28Z" fill="#E8E8E8" fill-opacity="1.000000" fill-rule="nonzero"/>
</svg>
