<svg width="14.000000" height="16.888916" viewBox="0 0 14 16.8889" fill="none" xmlns="http://www.w3.org/2000/svg" xmlns:xlink="http://www.w3.org/1999/xlink">
	<desc>
			Created with Pixso.
	</desc>
	<defs/>
	<path id="Vector" d="M7 16.38C7 16.38 0.5 12.05 0.5 7C0.5 5.27 1.18 3.62 2.4 2.4C3.62 1.18 5.27 0.5 7 0.5C8.72 0.5 10.37 1.18 11.59 2.4C12.81 3.62 13.5 5.27 13.5 7C13.5 12.05 7 16.38 7 16.38Z" stroke="#FFFFFF" stroke-opacity="1.000000" stroke-width="1.000000" stroke-linejoin="round"/>
	<path id="Vector" d="M7 9.16C5.8 9.16 4.83 8.19 4.83 7C4.83 5.8 5.8 4.83 7 4.83C8.19 4.83 9.16 5.8 9.16 7C9.16 8.19 8.19 9.16 7 9.16Z" stroke="#FFFFFF" stroke-opacity="1.000000" stroke-width="1.000000" stroke-linejoin="round"/>
</svg>
