<svg width="13.975098" height="14.000244" viewBox="0 0 13.9751 14.0002" fill="none" xmlns="http://www.w3.org/2000/svg" xmlns:xlink="http://www.w3.org/1999/xlink">
	<desc>
			Created with Pixso.
	</desc>
	<defs/>
	<path id="Vector" d="M10.13 3.83C10.57 4.27 10.87 4.83 10.98 5.43L8.53 2.98C9.14 3.1 9.7 3.39 10.13 3.83ZM11.86 2.1C12.76 2.99 13.33 4.17 13.47 5.43L8.53 0.5C9.79 0.64 10.97 1.2 11.86 2.1ZM12.85 12.25C12.85 12.42 12.81 12.59 12.74 12.75C12.68 12.91 12.57 13.05 12.45 13.17C12.32 13.29 12.17 13.37 12 13.43C11.84 13.49 11.67 13.51 11.49 13.49C9.58 13.28 7.75 12.63 6.13 11.58C4.63 10.63 3.36 9.36 2.41 7.86C1.36 6.24 0.7 4.39 0.5 2.47C0.48 2.3 0.5 2.13 0.56 1.96C0.61 1.8 0.7 1.65 0.82 1.52C0.94 1.39 1.08 1.29 1.23 1.22C1.39 1.15 1.56 1.12 1.74 1.12L3.6 1.12C3.9 1.11 4.19 1.22 4.42 1.42C4.65 1.61 4.8 1.89 4.84 2.18C4.92 2.78 5.07 3.37 5.28 3.93C5.36 4.15 5.38 4.39 5.33 4.63C5.28 4.86 5.16 5.07 5 5.24L4.21 6.03C5.09 7.58 6.38 8.87 7.93 9.76L8.72 8.97C8.89 8.8 9.11 8.69 9.34 8.64C9.57 8.59 9.81 8.6 10.03 8.69C10.6 8.9 11.18 9.04 11.78 9.12C12.08 9.17 12.36 9.32 12.55 9.55C12.75 9.78 12.86 10.08 12.85 10.38L12.85 12.25Z" stroke="#FFFFFF" stroke-opacity="1.000000" stroke-width="1.000000" stroke-linejoin="round"/>
</svg>
