<svg width="31.500000" height="31.500000" viewBox="0 0 31.5 31.5" fill="none" xmlns="http://www.w3.org/2000/svg" xmlns:xlink="http://www.w3.org/1999/xlink">
	<desc>
			Created with Pixso.
	</desc>
	<defs/>
	<path id="Vector (Stroke)" d="M0.51 0.51C1.19 -0.18 2.3 -0.18 2.98 0.51L15.75 13.27L28.51 0.51C29.19 -0.18 30.3 -0.18 30.98 0.51C31.67 1.19 31.67 2.3 30.98 2.98L18.22 15.75L30.98 28.51C31.67 29.19 31.67 30.3 30.98 30.98C30.3 31.67 29.19 31.67 28.51 30.98L15.75 18.22L2.98 30.98C2.3 31.67 1.19 31.67 0.51 30.98C-0.18 30.3 -0.18 29.19 0.51 28.51L13.27 15.75L0.51 2.98C-0.18 2.3 -0.18 1.19 0.51 0.51Z" fill="#F8F6F2" fill-opacity="1.000000" fill-rule="evenodd"/>
</svg>
