<svg width="24.000000" height="24.000000" viewBox="0 0 24 24" fill="none" xmlns="http://www.w3.org/2000/svg" xmlns:xlink="http://www.w3.org/1999/xlink">
	<desc>
			Created with Pixso.
	</desc>
	<defs>
		<clipPath id="clip55_301">
			<rect id="Location" rx="0.000000" width="23.250000" height="23.250000" transform="translate(0.375000 0.375000)" fill="white" fill-opacity="0"/>
		</clipPath>
	</defs>
	<g clip-path="url(#clip55_301)">
		<path id="Vector" d="M12 2.25C8.06 2.25 4.87 5.52 4.87 9.56C4.87 11.15 5.38 12.61 6.22 13.8C6.24 13.83 6.24 13.86 6.26 13.89L11.01 21.2C11.23 21.54 11.6 21.75 12 21.75C12.39 21.75 12.76 21.54 12.98 21.2L17.73 13.89C17.75 13.86 17.75 13.83 17.77 13.8C18.61 12.61 19.12 11.15 19.12 9.56C19.12 5.52 15.93 2.25 12 2.25ZM12 12C10.68 12 9.62 10.9 9.62 9.56C9.62 8.21 10.68 7.12 12 7.12C13.31 7.12 14.37 8.21 14.37 9.56C14.37 10.9 13.31 12 12 12Z" fill="#A0A0A0" fill-opacity="1.000000" fill-rule="nonzero"/>
	</g>
</svg>
