<svg width="24.000000" height="24.000000" viewBox="0 0 24 24" fill="none" xmlns="http://www.w3.org/2000/svg" xmlns:xlink="http://www.w3.org/1999/xlink">
	<desc>
			Created with Pixso.
	</desc>
	<defs>
		<clipPath id="clip55_296">
			<rect id="Mail" rx="0.000000" width="23.250000" height="23.250000" transform="translate(0.375000 0.375000)" fill="white" fill-opacity="0"/>
		</clipPath>
	</defs>
	<g clip-path="url(#clip55_296)">
		<path id="Vector" d="M5.96 4L18.03 4C18.47 4 18.84 4 19.16 4.02C19.49 4.04 19.82 4.09 20.14 4.22C20.88 4.53 21.46 5.11 21.77 5.85C21.9 6.17 21.95 6.5 21.97 6.83C22 7.15 22 7.52 22 7.96L22 16.03C22 16.47 22 16.84 21.97 17.16C21.95 17.49 21.9 17.82 21.77 18.14C21.46 18.88 20.88 19.46 20.14 19.77C19.82 19.9 19.49 19.95 19.16 19.97C18.84 20 18.47 20 18.03 20L5.96 20C5.52 20 5.15 20 4.83 19.97C4.5 19.95 4.17 19.9 3.85 19.77C3.11 19.46 2.53 18.88 2.22 18.14C2.09 17.82 2.04 17.49 2.02 17.16C2 16.84 2 16.47 2 16.03L2 7.96C2 7.52 2 7.15 2.02 6.83C2.04 6.5 2.09 6.17 2.22 5.85C2.53 5.11 3.11 4.53 3.85 4.22C4.17 4.09 4.5 4.04 4.83 4.02C5.15 4 5.52 4 5.96 4ZM4.31 6.27C4.68 5.86 5.31 5.81 5.72 6.18L11.34 11.09C11.71 11.42 12.28 11.42 12.65 11.09L18.27 6.18C18.68 5.81 19.31 5.86 19.68 6.27C20.04 6.69 20 7.32 19.58 7.68L13.97 12.6C12.84 13.58 11.15 13.58 10.02 12.6L4.41 7.68C3.99 7.32 3.95 6.69 4.31 6.27Z" fill="#A0A0A0" fill-opacity="1.000000" fill-rule="evenodd"/>
	</g>
</svg>
