<svg width="24.000000" height="24.000000" viewBox="0 0 24 24" fill="none" xmlns="http://www.w3.org/2000/svg" xmlns:xlink="http://www.w3.org/1999/xlink">
	<desc>
			Created with Pixso.
	</desc>
	<defs>
		<filter id="filter_55_292_dd" x="-1.000000" y="3.000000" width="26.000000" height="26.000000" filterUnits="userSpaceOnUse" color-interpolation-filters="sRGB">
			<feFlood flood-opacity="0" result="BackgroundImageFix"/>
			<feColorMatrix in="SourceAlpha" type="matrix" values="0 0 0 0 0 0 0 0 0 0 0 0 0 0 0 0 0 0 127 0" result="hardAlpha"/>
			<feOffset dx="0" dy="4"/>
			<feGaussianBlur stdDeviation="1.33333"/>
			<feComposite in2="hardAlpha" operator="out" k2="-1" k3="1"/>
			<feColorMatrix type="matrix" values="0 0 0 0 0 0 0 0 0 0 0 0 0 0 0 0 0 0 0.25 0"/>
			<feBlend mode="normal" in2="BackgroundImageFix" result="effect_dropShadow_1"/>
			<feBlend mode="normal" in="SourceGraphic" in2="effect_dropShadow_1" result="shape"/>
		</filter>
		<clipPath id="clip55_291">
			<rect id="Phone" rx="0.000000" width="23.250000" height="23.250000" transform="translate(0.375000 0.375000)" fill="white" fill-opacity="0"/>
		</clipPath>
	</defs>
	<g clip-path="url(#clip55_291)">
		<g filter="url(#filter_55_292_dd)">
			<path id="Vector" d="M15.55 14.54L15.1 15.02C15.1 15.02 14.01 16.16 11.06 13.05C8.1 9.94 9.19 8.8 9.19 8.8L9.47 8.5C10.18 7.75 10.25 6.56 9.63 5.69L8.37 3.9C7.61 2.83 6.13 2.68 5.26 3.6L3.69 5.26C3.25 5.71 2.96 6.3 3 6.96C3.09 8.64 3.81 12.25 7.81 16.47C12.06 20.94 16.04 21.12 17.67 20.96C18.19 20.91 18.63 20.63 19 20.25L20.42 18.75C21.38 17.74 21.11 16.01 19.88 15.31L17.97 14.21C17.16 13.74 16.18 13.88 15.55 14.54Z" fill="#A0A0A0" fill-opacity="1.000000" fill-rule="nonzero"/>
		</g>
		<path id="Vector" d="M13.25 1.87C13.32 1.47 13.71 1.19 14.12 1.25C14.14 1.26 14.22 1.27 14.27 1.28C14.35 1.3 14.47 1.33 14.62 1.38C14.92 1.46 15.33 1.6 15.83 1.83C16.82 2.29 18.15 3.09 19.53 4.46C20.9 5.84 21.7 7.17 22.16 8.16C22.39 8.66 22.53 9.07 22.61 9.37C22.66 9.52 22.69 9.64 22.71 9.72C22.72 9.77 22.72 9.8 22.73 9.83L22.73 9.86C22.8 10.27 22.52 10.67 22.11 10.74C21.71 10.8 21.32 10.52 21.26 10.12C21.25 10.11 21.25 10.08 21.24 10.05C21.23 9.99 21.21 9.91 21.17 9.79C21.11 9.56 20.99 9.21 20.79 8.79C20.4 7.94 19.7 6.76 18.46 5.52C17.23 4.29 16.05 3.59 15.2 3.2C14.78 3 14.43 2.88 14.2 2.82C14.08 2.78 13.94 2.75 13.88 2.74C13.47 2.67 13.19 2.28 13.25 1.87Z" fill="#A0A0A0" fill-opacity="1.000000" fill-rule="nonzero"/>
		<path id="Vector" d="M13.48 5.32C13.59 4.93 14.01 4.7 14.41 4.81L14.2 5.53C14.41 4.81 14.41 4.81 14.41 4.81L14.41 4.81L14.41 4.81L14.41 4.81L14.42 4.81L14.44 4.82C14.46 4.82 14.48 4.83 14.5 4.84C14.54 4.85 14.6 4.88 14.68 4.91C14.82 4.97 15.02 5.07 15.26 5.21C15.75 5.5 16.42 5.98 17.21 6.77C17.99 7.55 18.47 8.22 18.76 8.71C18.91 8.95 19 9.15 19.07 9.3C19.1 9.37 19.12 9.43 19.14 9.48C19.14 9.5 19.15 9.52 19.16 9.53L19.16 9.55L19.16 9.56L19.16 9.56L19.17 9.57C19.17 9.57 19.17 9.57 18.44 9.77L19.17 9.57C19.28 9.97 19.05 10.38 18.65 10.49C18.26 10.61 17.84 10.38 17.73 9.99L17.72 9.98C17.72 9.96 17.71 9.93 17.69 9.89C17.65 9.8 17.58 9.66 17.47 9.47C17.25 9.1 16.85 8.53 16.15 7.83C15.45 7.13 14.88 6.73 14.5 6.5C14.31 6.39 14.17 6.32 14.08 6.29C14.04 6.27 14.01 6.26 14 6.25L13.99 6.25C13.59 6.13 13.37 5.72 13.48 5.32Z" fill="#A0A0A0" fill-opacity="1.000000" fill-rule="evenodd"/>
	</g>
</svg>
