<svg width="76.000000" height="76.000000" viewBox="0 0 76 76" fill="none" xmlns="http://www.w3.org/2000/svg" xmlns:xlink="http://www.w3.org/1999/xlink">
	<desc>
			Created with Pixso.
	</desc>
	<defs>
		<filter id="filter_37_1487_dd" x="0.000000" y="0.000000" width="76.000000" height="76.000000" filterUnits="userSpaceOnUse" color-interpolation-filters="sRGB">
			<feFlood flood-opacity="0" result="BackgroundImageFix"/>
			<feColorMatrix in="SourceAlpha" type="matrix" values="0 0 0 0 0 0 0 0 0 0 0 0 0 0 0 0 0 0 127 0" result="hardAlpha"/>
			<feOffset dx="0" dy="4"/>
			<feGaussianBlur stdDeviation="1.33333"/>
			<feComposite in2="hardAlpha" operator="out" k2="-1" k3="1"/>
			<feColorMatrix type="matrix" values="0 0 0 0 0 0 0 0 0 0 0 0 0 0 0 0 0 0 0.25 0"/>
			<feBlend mode="normal" in2="BackgroundImageFix" result="effect_dropShadow_1"/>
			<feBlend mode="normal" in="SourceGraphic" in2="effect_dropShadow_1" result="shape"/>
		</filter>
	</defs>
	<g filter="url(#filter_37_1487_dd)">
		<path id="Vector 144" d="M30 26L38 34L30 42M38 34L6 34" stroke="#F8F6F2" stroke-opacity="1.000000" stroke-width="3.200000"/>
		<path id="Ellipse 136" d="M12.78 8.72Q22.79 0.32 35.84 1.05Q48.87 1.77 57.89 11.24Q66.9 20.69 66.99 33.76Q67.09 46.82 58.2 56.41Q49.34 66 36.3 66.91Q23.28 67.83 13.14 59.57L14.4 58.02Q23.93 65.78 36.16 64.91Q48.41 64.06 56.74 55.05Q65.08 46.04 64.99 33.78Q64.9 21.49 56.44 12.62Q47.97 3.72 35.72 3.05Q23.46 2.36 14.07 10.25L12.78 8.72Z" fill="#A0A0A0" fill-opacity="1.000000" fill-rule="evenodd"/>
	</g>
</svg>
