<svg width="40.235352" height="40.235352" viewBox="0 0 40.2354 40.2354" fill="none" xmlns="http://www.w3.org/2000/svg" xmlns:xlink="http://www.w3.org/1999/xlink">
	<desc>
			Created with Pixso.
	</desc>
	<defs>
		<filter id="filter_118_813_dd" x="0.000000" y="0.000000" width="40.235352" height="40.235352" filterUnits="userSpaceOnUse" color-interpolation-filters="sRGB">
			<feFlood flood-opacity="0" result="BackgroundImageFix"/>
			<feColorMatrix in="SourceAlpha" type="matrix" values="0 0 0 0 0 0 0 0 0 0 0 0 0 0 0 0 0 0 127 0" result="hardAlpha"/>
			<feOffset dx="0" dy="2.11765"/>
			<feGaussianBlur stdDeviation="0.705882"/>
			<feComposite in2="hardAlpha" operator="out" k2="-1" k3="1"/>
			<feColorMatrix type="matrix" values="0 0 0 0 0 0 0 0 0 0 0 0 0 0 0 0 0 0 0.25 0"/>
			<feBlend mode="normal" in2="BackgroundImageFix" result="effect_dropShadow_1"/>
			<feBlend mode="normal" in="SourceGraphic" in2="effect_dropShadow_1" result="shape"/>
		</filter>
	</defs>
	<g filter="url(#filter_118_813_dd)">
		<path id="Vector 144" d="M24.35 13.76L20.11 18L24.35 22.23M20.11 18L37.05 18" stroke="#F8F6F2" stroke-opacity="1.000000" stroke-width="1.694118"/>
		<path id="Ellipse 136" d="M33.46 4.61Q28.16 0.17 21.26 0.56Q14.36 0.94 9.58 5.95Q4.81 10.95 4.76 17.87Q4.71 24.78 9.41 29.86Q14.1 34.94 21.01 35.42Q27.9 35.91 33.27 31.53L32.6 30.71Q27.56 34.82 21.08 34.36Q14.6 33.91 10.19 29.14Q5.77 24.37 5.82 17.88Q5.87 11.38 10.35 6.68Q14.83 1.97 21.31 1.61Q27.81 1.25 32.78 5.42L33.46 4.61Z" fill="#A0A0A0" fill-opacity="1.000000" fill-rule="evenodd"/>
	</g>
</svg>
